<svg width="40" height="40" viewBox="0 0 40 40" fill="none" xmlns="http://www.w3.org/2000/svg">
<path d="M13.1692 12.0467L12.7048 11.161L13.1692 12.0467ZM13.1692 27.9533L13.6335 27.0677L13.1692 27.9533ZM23.8308 29.5263L24.2952 30.4119V30.4119L23.8308 29.5263ZM16.1692 29.5263L15.7048 30.4119L16.1692 29.5263ZM20 31V32V31ZM26.8308 27.9533L26.3665 27.0677L26.8308 27.9533ZM26.8308 12.0467L27.2952 11.161L26.8308 12.0467ZM23.8308 10.4737L23.3665 11.3594L23.8308 10.4737ZM16.1692 10.4737L15.7048 9.5881L16.1692 10.4737ZM23.3665 11.3594L26.3665 12.9323L27.2952 11.161L24.2952 9.5881L23.3665 11.3594ZM30 18.7976V21.2024H32V18.7976H30ZM26.3665 27.0677L23.3665 28.6406L24.2952 30.4119L27.2952 28.839L26.3665 27.0677ZM16.6335 28.6406L13.6335 27.0677L12.7048 28.839L15.7048 30.4119L16.6335 28.6406ZM10 21.2024V18.7976H8V21.2024H10ZM13.6335 12.9323L16.6335 11.3594L15.7048 9.5881L12.7048 11.161L13.6335 12.9323ZM10 18.7976C10 17.6643 10.0013 16.8907 10.0646 16.2849C10.1255 15.7032 10.2371 15.3599 10.4112 15.0778L8.70958 14.0269C8.32335 14.6523 8.15474 15.319 8.07548 16.0768C7.99874 16.8104 8 17.7057 8 18.7976H10ZM12.7048 11.161C11.7061 11.6847 10.8926 12.1099 10.2638 12.523C9.61752 12.9476 9.09439 13.4038 8.70958 14.0269L10.4112 15.0778C10.5868 14.7935 10.852 14.5296 11.3619 14.1946C11.8893 13.8481 12.6 13.4742 13.6335 12.9323L12.7048 11.161ZM13.6335 27.0677C12.6 26.5258 11.8893 26.1519 11.3619 25.8054C10.852 25.4704 10.5868 25.2065 10.4112 24.9222L8.70958 25.9731C9.09439 26.5962 9.61752 27.0524 10.2638 27.477C10.8926 27.8901 11.7061 28.3153 12.7048 28.839L13.6335 27.0677ZM8 21.2024C8 22.2943 7.99874 23.1896 8.07548 23.9232C8.15474 24.681 8.32335 25.3477 8.70958 25.9731L10.4112 24.9222C10.2371 24.6401 10.1255 24.2968 10.0646 23.7151C10.0013 23.1093 10 22.3357 10 21.2024H8ZM23.3665 28.6406C22.4136 29.1402 21.7577 29.483 21.2141 29.707C20.6897 29.9231 20.3348 30 20 30V32C20.6852 32 21.3087 31.8312 21.9762 31.5561C22.6246 31.2889 23.3742 30.8948 24.2952 30.4119L23.3665 28.6406ZM15.7048 30.4119C16.6258 30.8948 17.3754 31.2889 18.0238 31.5561C18.6913 31.8312 19.3148 32 20 32V30C19.6652 30 19.3103 29.9231 18.7859 29.707C18.2423 29.483 17.5864 29.1402 16.6335 28.6406L15.7048 30.4119ZM30 21.2024C30 22.3357 29.9987 23.1093 29.9354 23.7151C29.8745 24.2968 29.763 24.6401 29.5888 24.9222L31.2904 25.9731C31.6766 25.3477 31.8453 24.681 31.9245 23.9232C32.0013 23.1896 32 22.2943 32 21.2024H30ZM27.2952 28.839C28.2939 28.3153 29.1074 27.8901 29.7362 27.477C30.3825 27.0524 30.9056 26.5962 31.2904 25.9731L29.5888 24.9222C29.4132 25.2065 29.148 25.4704 28.6381 25.8054C28.1107 26.1519 27.4 26.5258 26.3665 27.0677L27.2952 28.839ZM26.3665 12.9323C27.4 13.4742 28.1107 13.8481 28.6381 14.1946C29.148 14.5296 29.4132 14.7935 29.5888 15.0778L31.2904 14.0269C30.9056 13.4038 30.3825 12.9476 29.7362 12.523C29.1074 12.1099 28.2939 11.6847 27.2952 11.161L26.3665 12.9323ZM32 18.7976C32 17.7057 32.0013 16.8104 31.9245 16.0768C31.8453 15.319 31.6766 14.6523 31.2904 14.0269L29.5888 15.0778C29.763 15.3599 29.8745 15.7032 29.9354 16.2849C29.9987 16.8907 30 17.6643 30 18.7976H32ZM24.2952 9.5881C23.3742 9.10522 22.6246 8.71109 21.9762 8.44388C21.3087 8.16877 20.6852 8 20 8V10C20.3348 10 20.6897 10.0769 21.2141 10.293C21.7577 10.517 22.4136 10.8598 23.3665 11.3594L24.2952 9.5881ZM16.6335 11.3594C17.5864 10.8598 18.2423 10.517 18.7859 10.293C19.3103 10.0769 19.6652 10 20 10V8C19.3148 8 18.6913 8.16877 18.0238 8.44388C17.3754 8.71109 16.6258 9.10522 15.7048 9.5881L16.6335 11.3594ZM23 20C23 21.5343 21.6945 22.8449 20 22.8449V24.8449C22.7238 24.8449 25 22.7127 25 20H23ZM20 22.8449C18.3055 22.8449 17 21.5343 17 20H15C15 22.7127 17.2762 24.8449 20 24.8449V22.8449ZM17 20C17 18.4657 18.3055 17.1551 20 17.1551V15.1551C17.2762 15.1551 15 17.2873 15 20H17ZM20 17.1551C21.6945 17.1551 23 18.4657 23 20H25C25 17.2873 22.7238 15.1551 20 15.1551V17.1551Z" fill="black"/>
</svg>
